<svg width="456" height="160" viewBox="0 0 456 160" fill="none" xmlns="http://www.w3.org/2000/svg">
<path d="M259.742 82.9878C259.917 82.9878 260.004 83.1626 260.004 83.5121C260.004 83.8508 259.917 84.0147 259.742 84.0147C257.978 84.0147 256.585 83.9874 255.569 83.9273L249.844 83.8399L244.535 83.9273C243.688 83.9874 242.492 84.0147 240.951 84.0147C240.831 84.0147 240.776 83.8508 240.776 83.5121C240.776 83.1626 240.831 82.9878 240.951 82.9878C242.945 82.9878 244.409 82.8348 245.343 82.5289C246.288 82.2121 246.916 81.6549 247.222 80.8683C247.539 80.0708 247.643 78.809 247.528 77.0884L246.086 37.3658L226.094 83.4248C225.973 83.6432 225.749 83.7525 225.416 83.7525C225.121 83.7525 224.859 83.6432 224.63 83.4248L203.785 37.7154L203.698 37.5406L203.02 75.1219C202.96 78.0934 203.441 80.1473 204.462 81.2835C205.495 82.4197 207.412 82.9878 210.209 82.9878C210.307 82.9878 210.362 83.1626 210.362 83.5121C210.362 83.8508 210.307 84.0147 210.209 84.0147C208.603 84.0147 207.374 83.9874 206.516 83.9273L201.906 83.8399L197.733 83.9273C196.99 83.9874 195.876 84.0147 194.39 84.0147C194.27 84.0147 194.215 83.8508 194.215 83.5121C194.215 83.1626 194.27 82.9878 194.39 82.9878C196.777 82.9878 198.465 82.4087 199.459 81.2398C200.464 80.0763 200.994 78.0388 201.054 75.1219L201.906 34.6346C200.142 32.6408 197.842 31.6412 195.002 31.6412C194.881 31.6412 194.827 31.4773 194.827 31.1386C194.827 30.7891 194.881 30.6143 195.002 30.6143L197.908 30.7017C198.476 30.7617 199.208 30.7891 200.114 30.7891C201.032 30.7891 201.802 30.7617 202.43 30.7017C203.053 30.647 203.534 30.6143 203.872 30.6143C204.67 30.6143 205.298 30.8928 205.752 31.4445C206.216 31.9853 206.899 33.1925 207.805 35.0716L227.033 76.5858L246.173 32.7555C246.446 32.1328 246.829 31.6193 247.31 31.226C247.801 30.8218 248.276 30.6143 248.73 30.6143C248.959 30.6143 249.331 30.647 249.844 30.7017C250.352 30.7617 251.068 30.7891 251.985 30.7891L255.831 30.7017C256.399 30.647 257.278 30.6143 258.475 30.6143C258.589 30.6143 258.649 30.7891 258.649 31.1386C258.649 31.4773 258.589 31.6412 258.475 31.6412C255.503 31.6412 253.406 32.029 252.182 32.7992C250.958 33.5749 250.374 35.0934 250.434 37.3658L252.051 77.0884C252.106 78.8527 252.319 80.1364 252.685 80.9339C253.061 81.7369 253.777 82.2831 254.826 82.5726C255.885 82.8512 257.524 82.9878 259.742 82.9878Z" fill="black"/>
<path d="M297.084 71.5386C297.084 71.3638 297.248 71.2928 297.586 71.3201C297.936 71.3528 298.111 71.4512 298.111 71.626C297.586 75.2093 297.324 78.9128 297.324 82.7256C297.324 83.1953 297.22 83.5285 297.018 83.7306C296.827 83.9218 296.477 84.0147 295.969 84.0147H260.682C260.562 84.0147 260.507 83.8508 260.507 83.5121C260.507 83.1626 260.562 82.9878 260.682 82.9878C262.911 82.9878 264.55 82.8512 265.598 82.5726C266.647 82.2831 267.352 81.7314 267.718 80.912C268.095 80.0818 268.286 78.809 268.286 77.0884V37.5406C268.286 35.8363 268.095 34.5854 267.718 33.7825C267.352 32.9849 266.647 32.4278 265.598 32.1219C264.55 31.8051 262.911 31.6412 260.682 31.6412C260.562 31.6412 260.507 31.4773 260.507 31.1386C260.507 30.7891 260.562 30.6143 260.682 30.6143H294.505C295.03 30.6143 295.292 30.871 295.292 31.379L295.445 41.7357C295.445 41.8996 295.281 41.9761 294.964 41.9761C294.658 41.9761 294.505 41.8996 294.505 41.7357C294.505 38.8242 293.73 36.5137 292.189 34.8094C290.66 33.1051 288.639 32.253 286.137 32.253H280.238C278.08 32.253 276.485 32.4005 275.453 32.69C274.431 32.9686 273.732 33.5093 273.355 34.3068C272.989 35.0934 272.809 36.3389 272.809 38.0431V55.3917H284.083C286.705 55.3917 288.524 54.9547 289.546 54.0807C290.578 53.1958 291.097 51.6664 291.097 49.4923C291.097 49.394 291.261 49.3394 291.599 49.3394C291.949 49.3394 292.124 49.394 292.124 49.4923L292.036 56.2438C292.036 57.9044 292.064 59.128 292.124 59.9146L292.211 63.9349C292.211 64.0551 292.036 64.1097 291.687 64.1097C291.348 64.1097 291.184 64.0551 291.184 63.9349C291.184 61.373 290.638 59.5814 289.546 58.5599C288.464 57.5275 286.563 57.0086 283.843 57.0086H272.809V76.7606C272.809 78.4103 272.989 79.6175 273.355 80.3877C273.732 81.1633 274.415 81.6932 275.409 81.9827C276.414 82.2613 278.02 82.3978 280.238 82.3978H288.103C290.387 82.3978 292.342 81.4037 293.959 79.4044C295.576 77.4106 296.614 74.7887 297.084 71.5386Z" fill="black"/>
<path d="M337.83 71.5386C337.83 71.3638 337.994 71.2928 338.333 71.3201C338.682 71.3528 338.857 71.4512 338.857 71.626C338.333 75.2093 338.07 78.9128 338.07 82.7256C338.07 83.1953 337.967 83.5285 337.764 83.7306C337.573 83.9218 337.224 84.0147 336.716 84.0147H301.429C301.308 84.0147 301.254 83.8508 301.254 83.5121C301.254 83.1626 301.308 82.9878 301.429 82.9878C303.657 82.9878 305.296 82.8512 306.345 82.5726C307.394 82.2831 308.098 81.7314 308.464 80.912C308.841 80.0818 309.032 78.809 309.032 77.0884V37.5406C309.032 35.8363 308.841 34.5854 308.464 33.7825C308.098 32.9849 307.394 32.4278 306.345 32.1219C305.296 31.8051 303.657 31.6412 301.429 31.6412C301.308 31.6412 301.254 31.4773 301.254 31.1386C301.254 30.7891 301.308 30.6143 301.429 30.6143H335.252C335.776 30.6143 336.038 30.871 336.038 31.379L336.191 41.7357C336.191 41.8996 336.027 41.9761 335.711 41.9761C335.405 41.9761 335.252 41.8996 335.252 41.7357C335.252 38.8242 334.476 36.5137 332.936 34.8094C331.406 33.1051 329.385 32.253 326.883 32.253H320.984C318.826 32.253 317.231 32.4005 316.199 32.69C315.177 32.9686 314.478 33.5093 314.101 34.3068C313.735 35.0934 313.555 36.3389 313.555 38.0431V55.3917H324.83C327.451 55.3917 329.27 54.9547 330.292 54.0807C331.324 53.1958 331.843 51.6664 331.843 49.4923C331.843 49.394 332.007 49.3394 332.346 49.3394C332.695 49.3394 332.87 49.394 332.87 49.4923L332.783 56.2438C332.783 57.9044 332.81 59.128 332.87 59.9146L332.958 63.9349C332.958 64.0551 332.783 64.1097 332.433 64.1097C332.095 64.1097 331.931 64.0551 331.931 63.9349C331.931 61.373 331.384 59.5814 330.292 58.5599C329.21 57.5275 327.309 57.0086 324.589 57.0086H313.555V76.7606C313.555 78.4103 313.735 79.6175 314.101 80.3877C314.478 81.1633 315.161 81.6932 316.155 81.9827C317.16 82.2613 318.766 82.3978 320.984 82.3978H328.85C331.133 82.3978 333.089 81.4037 334.706 79.4044C336.322 77.4106 337.36 74.7887 337.83 71.5386Z" fill="black"/>
<path d="M353.799 32.0784C350.199 32.0784 347.577 32.9306 345.933 34.6348C344.284 36.3391 343.18 39.3871 342.612 43.768C342.612 43.8882 342.437 43.9428 342.088 43.9428C341.749 43.9428 341.585 43.8882 341.585 43.768C341.804 42.2385 342.05 39.7859 342.328 36.4047C342.618 33.0125 342.765 30.4561 342.765 28.7354C342.765 28.4623 342.929 28.3203 343.268 28.3203C343.617 28.3203 343.792 28.4623 343.792 28.7354C343.792 29.9918 345.305 30.6145 348.337 30.6145C353.231 30.7893 358.945 30.8767 365.489 30.8767C368.854 30.8767 372.415 30.8221 376.173 30.7019L381.985 30.6145C384.039 30.6145 385.547 30.478 386.508 30.1994C387.48 29.9099 388.108 29.3363 388.387 28.4733C388.442 28.2548 388.611 28.1455 388.89 28.1455C389.179 28.1455 389.327 28.2548 389.327 28.4733C389.163 30.0792 388.999 32.5154 388.824 35.7929C388.649 39.0703 388.562 41.7305 388.562 43.768C388.562 43.8882 388.387 43.9428 388.037 43.9428C387.699 43.9428 387.535 43.8882 387.535 43.768C387.535 40.7527 387.218 38.4257 386.595 36.7761C385.967 35.1155 384.913 33.9247 383.427 33.1928C381.952 32.4499 379.877 32.0784 377.2 32.0784C374.239 32.0784 372.164 32.1822 370.973 32.3843C369.777 32.5755 368.963 33.0398 368.526 33.7827C368.1 34.5256 367.892 35.8366 367.892 37.7156V77.0886C367.892 78.853 368.089 80.1366 368.482 80.9342C368.886 81.7371 369.689 82.2834 370.886 82.5729C372.076 82.8515 373.955 82.988 376.523 82.988C376.637 82.988 376.698 83.1628 376.698 83.5124C376.698 83.8511 376.637 84.0149 376.523 84.0149C374.644 84.0149 373.163 83.9876 372.087 83.9276L365.489 83.8402L359.262 83.9276C358.125 83.9876 356.558 84.0149 354.564 84.0149C354.444 84.0149 354.389 83.8511 354.389 83.5124C354.389 83.1628 354.444 82.988 354.564 82.988C357.126 82.988 359.005 82.8515 360.201 82.5729C361.392 82.2834 362.2 81.7317 362.626 80.9123C363.063 80.082 363.282 78.8093 363.282 77.0886V37.5408C363.282 35.6618 363.047 34.3672 362.583 33.6516C362.129 32.9415 361.321 32.5045 360.157 32.3406C358.988 32.1658 356.869 32.0784 353.799 32.0784Z" fill="black"/>
<path d="M399.419 40.9494C399.419 43.2382 399.955 45.2101 401.036 46.8707C402.112 48.5203 403.429 49.8969 404.991 51.0003C406.564 52.1091 408.749 53.4857 411.546 55.1298C414.501 56.9106 416.79 58.38 418.407 59.5435C420.034 60.7124 421.433 62.2036 422.602 64.0226C423.765 65.8471 424.35 68.0375 424.35 70.5994C424.35 73.2814 423.694 75.7231 422.383 77.919C421.072 80.1039 419.117 81.841 416.528 83.1192C413.949 84.3974 410.781 85.0419 407.023 85.0419C405.024 85.0419 403.123 84.8235 401.32 84.3865C399.529 83.9659 397.551 83.2175 395.399 82.1359C395.104 81.9612 394.918 81.7645 394.831 81.546C394.754 81.3166 394.689 80.9725 394.634 80.5191L393.345 69.3976V69.3102C393.345 69.0917 393.482 68.9716 393.76 68.9388C394.05 68.9115 394.225 69.0153 394.285 69.2447C394.853 73.1667 396.36 76.5807 398.807 79.4921C401.255 82.3927 404.619 83.8402 408.902 83.8402C411.917 83.8402 414.457 83.0209 416.528 81.3712C418.609 79.7106 419.652 77.1215 419.652 73.5928C419.652 71.0309 419.084 68.8241 417.948 66.9723C416.812 65.126 415.424 63.5856 413.796 62.3621C412.179 61.1385 409.973 59.6964 407.176 58.0358C404.45 56.4517 402.303 55.0588 400.73 53.8626C399.168 52.6718 397.83 51.1751 396.71 49.3834C395.601 47.5808 395.049 45.4232 395.049 42.9159C395.049 40.0755 395.776 37.6611 397.234 35.6618C398.687 33.6681 400.583 32.1768 402.915 31.1827C405.242 30.1776 407.749 29.675 410.431 29.675C413.561 29.675 416.812 30.3633 420.176 31.7289C421.018 32.0785 421.444 32.5701 421.444 33.1928L422.23 42.2386C422.23 42.4735 422.066 42.5882 421.75 42.5882C421.444 42.5882 421.258 42.4735 421.203 42.2386C420.968 39.2834 419.854 36.6396 417.86 34.3072C415.861 31.9638 413.015 30.7894 409.317 30.7894C405.909 30.7894 403.401 31.789 401.801 33.7828C400.211 35.782 399.419 38.1691 399.419 40.9494Z" fill="black"/>
<path d="M59.562 156.987C59.7805 156.987 59.8898 157.162 59.8898 157.512C59.8898 157.85 59.7805 158.014 59.562 158.014C58.5242 158.014 56.8745 157.96 54.6022 157.839C52.4281 157.725 50.8331 157.665 49.8171 157.665C48.6208 157.665 47.0531 157.725 45.1194 157.839C43.295 157.96 41.9294 158.014 41.0117 158.014C40.7768 158.014 40.6621 157.85 40.6621 157.512C40.6621 157.162 40.7768 156.987 41.0117 156.987C43.3387 156.987 45.0157 156.78 46.0371 156.354C47.0695 155.917 47.5884 155.19 47.5884 154.169C47.5884 153.371 47.2716 152.262 46.6489 150.848L38.6301 133.499H18.2881L12.4761 147.505C11.6732 149.444 11.2744 151.039 11.2744 152.29C11.2744 153.939 11.9572 155.13 13.3283 155.873C14.6939 156.616 16.8297 156.987 19.7302 156.987C20.0197 156.987 20.1672 157.162 20.1672 157.512C20.1672 157.85 20.0197 158.014 19.7302 158.014C18.7087 158.014 17.2284 157.96 15.2947 157.839C13.1371 157.725 11.258 157.665 9.65753 157.665C8.22638 157.665 6.54396 157.725 4.61027 157.839C2.906 157.96 1.51309 158.014 0.436992 158.014C0.147485 158.014 0 157.85 0 157.512C0 157.162 0.147485 156.987 0.436992 156.987C2.02109 156.987 3.3703 156.703 4.47917 156.135C5.59896 155.567 6.6532 154.551 7.64736 153.076C8.65244 151.59 9.72308 149.482 10.8593 146.74L28.7104 103.762C28.8251 103.587 29.0054 103.5 29.2566 103.5C29.5188 103.5 29.6772 103.587 29.7373 103.762L49.5549 146.303C50.8659 149.22 52.0294 151.432 53.0508 152.945C54.0832 154.447 55.0938 155.496 56.0879 156.092C57.093 156.692 58.2511 156.987 59.562 156.987ZM18.9655 131.948H37.8435L27.8582 110.513L18.9655 131.948Z" fill="black"/>
<path d="M66.9023 114.948C66.9023 117.237 67.4376 119.209 68.5192 120.869C69.5953 122.519 70.9117 123.896 72.474 124.999C74.0471 126.108 76.2321 127.484 79.0288 129.129C81.984 130.909 84.2728 132.379 85.8896 133.542C87.5174 134.711 88.9158 136.202 90.0847 138.021C91.2482 139.846 91.8327 142.036 91.8327 144.598C91.8327 147.28 91.1772 149.722 89.8662 151.918C88.5553 154.103 86.5997 155.84 84.0106 157.118C81.4323 158.396 78.2641 159.041 74.506 159.041C72.5067 159.041 70.6058 158.822 68.8032 158.385C67.0116 157.965 65.0342 157.216 62.882 156.135C62.587 155.96 62.4013 155.763 62.3139 155.545C62.2374 155.315 62.1719 154.971 62.1173 154.518L60.8281 143.396V143.309C60.8281 143.091 60.9647 142.97 61.2433 142.938C61.5328 142.91 61.7076 143.014 61.7677 143.243C62.3357 147.165 63.8434 150.579 66.2905 153.491C68.7377 156.391 72.1025 157.839 76.385 157.839C79.4003 157.839 81.9403 157.02 84.0106 155.37C86.0917 153.709 87.135 151.12 87.135 147.592C87.135 145.03 86.567 142.823 85.4308 140.971C84.2946 139.125 82.9072 137.584 81.2794 136.361C79.6625 135.137 77.4557 133.695 74.6589 132.035C71.9332 130.451 69.7865 129.058 68.2133 127.861C66.651 126.671 65.3128 125.174 64.193 123.382C63.0841 121.58 62.5324 119.422 62.5324 116.915C62.5324 114.074 63.2589 111.66 64.7174 109.661C66.1704 107.667 68.0658 106.176 70.3983 105.181C72.7252 104.176 75.2325 103.674 77.9145 103.674C81.0445 103.674 84.2946 104.362 87.6594 105.728C88.5006 106.077 88.9267 106.569 88.9267 107.192L89.7133 116.237C89.7133 116.472 89.5494 116.587 89.2326 116.587C88.9267 116.587 88.741 116.472 88.6864 116.237C88.4515 113.282 87.3372 110.638 85.3434 108.306C83.3441 105.963 80.4982 104.788 76.8002 104.788C73.3916 104.788 70.8844 105.788 69.2839 107.782C67.6944 109.781 66.9023 112.168 66.9023 114.948Z" fill="black"/>
<path d="M103.549 114.948C103.549 117.237 104.084 119.209 105.166 120.869C106.242 122.519 107.558 123.896 109.12 124.999C110.693 126.108 112.878 127.484 115.675 129.129C118.63 130.909 120.919 132.379 122.536 133.542C124.164 134.711 125.562 136.202 126.731 138.021C127.895 139.846 128.479 142.036 128.479 144.598C128.479 147.28 127.824 149.722 126.513 151.918C125.202 154.103 123.246 155.84 120.657 157.118C118.079 158.396 114.91 159.041 111.152 159.041C109.153 159.041 107.252 158.822 105.45 158.385C103.658 157.965 101.681 157.216 99.5284 156.135C99.2334 155.96 99.0477 155.763 98.9603 155.545C98.8838 155.315 98.8182 154.971 98.7636 154.518L97.4745 143.396V143.309C97.4745 143.091 97.611 142.97 97.8896 142.938C98.1791 142.91 98.3539 143.014 98.414 143.243C98.9821 147.165 100.49 150.579 102.937 153.491C105.384 156.391 108.749 157.839 113.031 157.839C116.047 157.839 118.587 157.02 120.657 155.37C122.738 153.709 123.781 151.12 123.781 147.592C123.781 145.03 123.213 142.823 122.077 140.971C120.941 139.125 119.554 137.584 117.926 136.361C116.309 135.137 114.102 133.695 111.305 132.035C108.58 130.451 106.433 129.058 104.86 127.861C103.297 126.671 101.959 125.174 100.839 123.382C99.7305 121.58 99.1788 119.422 99.1788 116.915C99.1788 114.074 99.9053 111.66 101.364 109.661C102.817 107.667 104.712 106.176 107.045 105.181C109.372 104.176 111.879 103.674 114.561 103.674C117.691 103.674 120.941 104.362 124.306 105.728C125.147 106.077 125.573 106.569 125.573 107.192L126.36 116.237C126.36 116.472 126.196 116.587 125.879 116.587C125.573 116.587 125.387 116.472 125.333 116.237C125.098 113.282 123.984 110.638 121.99 108.306C119.991 105.963 117.145 104.788 113.447 104.788C110.038 104.788 107.531 105.788 105.93 107.782C104.341 109.781 103.549 112.168 103.549 114.948Z" fill="black"/>
<path d="M144.805 151.088C144.805 152.852 144.985 154.136 145.351 154.933C145.728 155.736 146.427 156.282 147.449 156.572C148.465 156.85 150.12 156.987 152.409 156.987C152.523 156.987 152.583 157.162 152.583 157.511C152.583 157.85 152.523 158.014 152.409 158.014C150.688 158.014 149.35 157.987 148.388 157.927L142.402 157.839L136.677 157.927C135.655 157.987 134.263 158.014 132.504 158.014C132.329 158.014 132.241 157.85 132.241 157.511C132.241 157.162 132.329 156.987 132.504 156.987C134.716 156.987 136.349 156.85 137.398 156.572C138.458 156.282 139.19 155.731 139.583 154.911C139.987 154.081 140.195 152.808 140.195 151.088V111.54C140.195 109.836 139.987 108.585 139.583 107.782C139.19 106.984 138.458 106.427 137.398 106.121C136.349 105.804 134.716 105.64 132.504 105.64C132.329 105.64 132.241 105.477 132.241 105.138C132.241 104.788 132.329 104.614 132.504 104.614L136.677 104.701C139.064 104.821 140.97 104.876 142.402 104.876C144.002 104.876 145.996 104.821 148.388 104.701L152.409 104.614C152.523 104.614 152.583 104.788 152.583 105.138C152.583 105.477 152.523 105.64 152.409 105.64C150.18 105.64 148.541 105.815 147.492 106.165C146.444 106.504 145.728 107.083 145.351 107.913C144.985 108.732 144.805 109.999 144.805 111.715V151.088Z" fill="black"/>
<path d="M163.6 114.948C163.6 117.237 164.136 119.209 165.217 120.869C166.293 122.519 167.61 123.896 169.172 124.999C170.745 126.108 172.93 127.484 175.727 129.129C178.682 130.909 180.971 132.379 182.588 133.542C184.215 134.711 185.614 136.202 186.783 138.021C187.946 139.846 188.531 142.036 188.531 144.598C188.531 147.28 187.875 149.722 186.564 151.918C185.253 154.103 183.298 155.84 180.709 157.118C178.13 158.396 174.962 159.041 171.204 159.041C169.205 159.041 167.304 158.822 165.501 158.385C163.71 157.965 161.732 157.216 159.58 156.135C159.285 155.96 159.099 155.763 159.012 155.545C158.935 155.315 158.87 154.971 158.815 154.518L157.526 143.396V143.309C157.526 143.091 157.663 142.97 157.941 142.938C158.231 142.91 158.406 143.014 158.466 143.243C159.034 147.165 160.541 150.579 162.989 153.491C165.436 156.391 168.801 157.839 173.083 157.839C176.098 157.839 178.638 157.02 180.709 155.37C182.79 153.709 183.833 151.12 183.833 147.592C183.833 145.03 183.265 142.823 182.129 140.971C180.993 139.125 179.605 137.584 177.977 136.361C176.36 135.137 174.154 133.695 171.357 132.035C168.631 130.451 166.484 129.058 164.911 127.861C163.349 126.671 162.011 125.174 160.891 123.382C159.782 121.58 159.23 119.422 159.23 116.915C159.23 114.074 159.957 111.66 161.415 109.661C162.868 107.667 164.764 106.176 167.096 105.181C169.423 104.176 171.93 103.674 174.613 103.674C177.742 103.674 180.993 104.362 184.357 105.728C185.199 106.077 185.625 106.569 185.625 107.192L186.411 116.237C186.411 116.472 186.247 116.587 185.931 116.587C185.625 116.587 185.439 116.472 185.384 116.237C185.149 113.282 184.035 110.638 182.041 108.306C180.042 105.963 177.196 104.788 173.498 104.788C170.09 104.788 167.582 105.788 165.982 107.782C164.392 109.781 163.6 112.168 163.6 114.948Z" fill="black"/>
<path d="M203.83 106.077C200.23 106.077 197.608 106.93 195.964 108.634C194.315 110.338 193.211 113.386 192.643 117.767C192.643 117.887 192.468 117.942 192.119 117.942C191.78 117.942 191.616 117.887 191.616 117.767C191.835 116.238 192.08 113.785 192.359 110.404C192.648 107.012 192.796 104.455 192.796 102.734C192.796 102.461 192.96 102.319 193.299 102.319C193.648 102.319 193.823 102.461 193.823 102.734C193.823 103.991 195.336 104.614 198.368 104.614C203.262 104.788 208.976 104.876 215.52 104.876C218.884 104.876 222.446 104.821 226.204 104.701L232.016 104.614C234.07 104.614 235.577 104.477 236.539 104.198C237.511 103.909 238.139 103.335 238.418 102.472C238.473 102.254 238.642 102.145 238.92 102.145C239.21 102.145 239.357 102.254 239.357 102.472C239.194 104.078 239.03 106.514 238.855 109.792C238.68 113.069 238.593 115.73 238.593 117.767C238.593 117.887 238.418 117.942 238.068 117.942C237.73 117.942 237.566 117.887 237.566 117.767C237.566 114.752 237.249 112.425 236.626 110.775C235.998 109.115 234.944 107.924 233.458 107.192C231.983 106.449 229.908 106.077 227.231 106.077C224.27 106.077 222.195 106.181 221.004 106.383C219.808 106.575 218.994 107.039 218.557 107.782C218.131 108.525 217.923 109.836 217.923 111.715V151.088C217.923 152.852 218.12 154.136 218.513 154.933C218.917 155.736 219.72 156.282 220.916 156.572C222.107 156.85 223.986 156.987 226.554 156.987C226.668 156.987 226.728 157.162 226.728 157.511C226.728 157.85 226.668 158.014 226.554 158.014C224.675 158.014 223.194 157.987 222.118 157.927L215.52 157.839L209.292 157.927C208.156 157.987 206.589 158.014 204.595 158.014C204.475 158.014 204.42 157.85 204.42 157.511C204.42 157.162 204.475 156.987 204.595 156.987C207.157 156.987 209.036 156.85 210.232 156.572C211.423 156.282 212.231 155.731 212.657 154.911C213.094 154.081 213.313 152.808 213.313 151.088V111.54C213.313 109.661 213.078 108.366 212.614 107.651C212.16 106.941 211.352 106.504 210.188 106.34C209.019 106.165 206.9 106.077 203.83 106.077Z" fill="black"/>
<path d="M296.951 156.987C297.17 156.987 297.279 157.162 297.279 157.512C297.279 157.85 297.17 158.014 296.951 158.014C295.913 158.014 294.264 157.96 291.991 157.839C289.817 157.725 288.222 157.665 287.206 157.665C286.01 157.665 284.442 157.725 282.509 157.839C280.684 157.96 279.319 158.014 278.401 158.014C278.166 158.014 278.051 157.85 278.051 157.512C278.051 157.162 278.166 156.987 278.401 156.987C280.728 156.987 282.405 156.78 283.426 156.354C284.459 155.917 284.978 155.19 284.978 154.169C284.978 153.371 284.661 152.262 284.038 150.848L276.019 133.499H255.677L249.865 147.505C249.062 149.444 248.664 151.039 248.664 152.29C248.664 153.939 249.346 155.13 250.717 155.873C252.083 156.616 254.219 156.987 257.119 156.987C257.409 156.987 257.556 157.162 257.556 157.512C257.556 157.85 257.409 158.014 257.119 158.014C256.098 158.014 254.618 157.96 252.684 157.839C250.526 157.725 248.647 157.665 247.047 157.665C245.616 157.665 243.933 157.725 241.999 157.839C240.295 157.96 238.902 158.014 237.826 158.014C237.537 158.014 237.389 157.85 237.389 157.512C237.389 157.162 237.537 156.987 237.826 156.987C239.41 156.987 240.759 156.703 241.868 156.135C242.988 155.567 244.042 154.551 245.037 153.076C246.042 151.59 247.112 149.482 248.248 146.74L266.1 103.762C266.214 103.587 266.395 103.5 266.646 103.5C266.908 103.5 267.066 103.587 267.126 103.762L286.944 146.303C288.255 149.22 289.419 151.432 290.44 152.945C291.472 154.447 292.483 155.496 293.477 156.092C294.482 156.692 295.64 156.987 296.951 156.987ZM256.355 131.948H275.233L265.247 110.513L256.355 131.948Z" fill="black"/>
<path d="M352.208 104.614C352.382 104.614 352.47 104.788 352.47 105.138C352.47 105.477 352.382 105.64 352.208 105.64C349.76 105.64 348.034 106.241 347.029 107.432C346.035 108.628 345.543 110.682 345.543 113.594V158.953C345.543 159.068 345.396 159.156 345.106 159.216C344.828 159.27 344.631 159.243 344.516 159.128L305.908 111.627L304.444 110.01V149.121C304.444 152.038 304.925 154.076 305.886 155.239C306.859 156.408 308.552 156.987 310.956 156.987C311.114 156.987 311.196 157.162 311.196 157.511C311.196 157.85 311.114 158.014 310.956 158.014C309.584 158.014 308.53 157.987 307.787 157.927L303.68 157.839L299.506 157.927C298.763 157.987 297.649 158.014 296.163 158.014C296.043 158.014 295.989 157.85 295.989 157.511C295.989 157.162 296.043 156.987 296.163 156.987C298.61 156.987 300.282 156.419 301.189 155.283C302.106 154.147 302.565 152.093 302.565 149.121V108.197C300.582 106.493 298.534 105.64 296.426 105.64C296.251 105.64 296.163 105.477 296.163 105.138C296.163 104.788 296.251 104.614 296.426 104.614L299.506 104.701C300.129 104.761 301.014 104.788 302.15 104.788C303.111 104.788 303.904 104.761 304.532 104.701C305.154 104.646 305.646 104.614 305.996 104.614C306.389 104.614 306.706 104.717 306.957 104.919C307.219 105.127 307.525 105.542 307.875 106.165C308.497 107.186 309.186 108.153 309.929 109.071L343.664 151V113.594C343.664 110.682 343.206 108.628 342.288 107.432C341.381 106.241 339.737 105.64 337.35 105.64C337.23 105.64 337.175 105.477 337.175 105.138C337.175 104.788 337.23 104.614 337.35 104.614L340.584 104.701C342.299 104.821 343.67 104.876 344.691 104.876C345.653 104.876 347.051 104.821 348.886 104.701L352.208 104.614Z" fill="black"/>
<path d="M384.403 103.674C388.161 103.674 391.231 103.952 393.623 104.504C396.027 105.045 398.567 105.99 401.249 107.345C401.582 107.579 401.795 107.771 401.882 107.913C401.97 108.06 402.041 108.497 402.101 109.224L403.128 118.969C403.128 119.143 402.964 119.247 402.647 119.274C402.341 119.307 402.156 119.231 402.101 119.056C400.845 114.336 398.763 110.797 395.852 108.437C392.951 106.066 389.133 104.876 384.403 104.876C379.388 104.876 374.991 105.935 371.206 108.044C367.415 110.141 364.481 113.146 362.4 117.046C360.33 120.951 359.298 125.496 359.298 130.68C359.298 135.52 360.445 140.032 362.75 144.227C365.066 148.411 368.169 151.737 372.058 154.212C375.958 156.692 380.131 157.926 384.578 157.926C394.028 157.926 400.069 153.289 402.691 144.008C402.691 143.893 402.833 143.833 403.128 143.833C403.521 143.833 403.718 143.921 403.718 144.096L403.041 153.141C402.98 153.83 402.893 154.256 402.778 154.43C402.658 154.605 402.434 154.802 402.101 155.02C399.129 156.566 396.344 157.637 393.754 158.232C391.176 158.828 388.084 159.128 384.49 159.128C378.574 159.128 373.292 157.948 368.649 155.588C364.001 153.218 360.368 149.88 357.746 145.581C355.135 141.288 353.835 136.35 353.835 130.767C353.835 125.409 355.135 120.684 357.746 116.587C360.368 112.479 364.001 109.306 368.649 107.061C373.292 104.805 378.547 103.674 384.403 103.674Z" fill="black"/>
<path d="M443.701 145.538C443.701 145.363 443.865 145.292 444.204 145.319C444.553 145.352 444.728 145.45 444.728 145.625C444.204 149.209 443.942 152.912 443.942 156.725C443.942 157.195 443.838 157.528 443.636 157.73C443.445 157.921 443.095 158.014 442.587 158.014H407.3C407.18 158.014 407.125 157.85 407.125 157.511C407.125 157.162 407.18 156.987 407.3 156.987C409.529 156.987 411.167 156.85 412.216 156.572C413.265 156.282 413.97 155.731 414.335 154.911C414.712 154.081 414.904 152.808 414.904 151.088V111.54C414.904 109.836 414.712 108.585 414.335 107.782C413.97 106.984 413.265 106.427 412.216 106.121C411.167 105.804 409.529 105.64 407.3 105.64C407.18 105.64 407.125 105.477 407.125 105.138C407.125 104.788 407.18 104.614 407.3 104.614H441.123C441.647 104.614 441.91 104.87 441.91 105.378L442.063 115.735C442.063 115.899 441.899 115.975 441.582 115.975C441.276 115.975 441.123 115.899 441.123 115.735C441.123 112.824 440.347 110.513 438.807 108.809C437.278 107.104 435.256 106.252 432.755 106.252H426.855C424.698 106.252 423.103 106.4 422.07 106.689C421.049 106.968 420.35 107.509 419.973 108.306C419.607 109.093 419.426 110.338 419.426 112.042V129.391H430.701C433.323 129.391 435.142 128.954 436.163 128.08C437.196 127.195 437.715 125.666 437.715 123.492C437.715 123.393 437.878 123.339 438.217 123.339C438.567 123.339 438.741 123.393 438.741 123.492L438.654 130.243C438.654 131.904 438.681 133.127 438.741 133.914L438.829 137.934C438.829 138.054 438.654 138.109 438.305 138.109C437.966 138.109 437.802 138.054 437.802 137.934C437.802 135.372 437.256 133.581 436.163 132.559C435.082 131.527 433.181 131.008 430.46 131.008H419.426V150.76C419.426 152.41 419.607 153.617 419.973 154.387C420.35 155.163 421.032 155.692 422.027 155.982C423.032 156.261 424.638 156.397 426.855 156.397H434.721C437.004 156.397 438.96 155.403 440.577 153.404C442.194 151.41 443.232 148.788 443.701 145.538Z" fill="black"/>
<path d="M452.657 158.953C451.635 158.953 450.811 158.653 450.188 158.058C449.56 157.462 449.248 156.654 449.248 155.632C449.248 154.66 449.56 153.884 450.188 153.316C450.811 152.748 451.635 152.464 452.657 152.464C453.733 152.464 454.558 152.748 455.126 153.316C455.705 153.884 456 154.66 456 155.632C456 156.654 455.705 157.462 455.126 158.058C454.558 158.653 453.733 158.953 452.657 158.953Z" fill="black"/>
<path d="M169.71 12.4488C169.71 12.0883 169.355 11.8534 168.273 11.4929C164.805 10.0563 158.818 8.4995 156.666 7.89863C143.381 4.43001 128.059 0 104.598 0C80.7822 0 59.5935 9.21507 59.5935 24.1766C59.5935 27.2902 60.7898 29.8029 62.3466 30.9991C52.5306 32.0807 40.202 35.5493 30.6319 41.4159C14.8292 50.9915 5.97461 64.8769 5.97461 75.8891C5.97461 87.6169 15.6649 90.6103 24.2846 90.6103C35.6573 90.6103 52.8912 86.3005 77.3081 65.953C84.2508 60.3268 91.4339 53.384 100.168 44.8845C101.485 46.922 102.206 49.3146 102.206 52.0676C102.206 54.5803 101.485 57.5737 99.9334 60.6873C92.9907 70.383 88.801 77.3203 88.801 81.1549C88.801 82.4713 89.1615 83.3071 90.1174 83.4273C92.0293 84.0281 93.9466 80.4339 97.6555 74.4525C102.921 66.0732 117.768 46.4413 128.059 36.6254C143.021 22.3849 156.666 12.0883 163.849 12.0883C165.165 12.0883 166.722 12.2085 168.394 12.8093C169.59 13.2846 169.71 12.6892 169.71 12.4488ZM64.0235 30.8844C62.4668 30.0432 61.0301 27.6507 61.0301 24.6573C61.0301 12.6892 80.9024 4.18966 104.478 4.18966C128.3 4.18966 148.887 7.89863 160.375 10.6517C150.204 11.2525 138.23 15.2019 125.667 22.0244C116.091 27.2902 106.991 33.6375 98.7316 40.46C92.9907 34.353 82.5739 30.6441 69.4095 30.6441C67.9729 30.6441 65.4602 30.7642 64.0235 30.8844ZM158.583 11.9681C148.647 14.6065 137.995 21.7841 126.262 32.4357C119.085 38.9032 111.301 46.3212 103.282 56.3774C103.763 54.8207 104.003 53.384 104.003 51.9474C104.003 48.8339 102.921 46.0808 101.37 43.8085C108.307 37.3464 116.687 30.6441 126.142 24.7775C136.914 18.3154 148.527 13.1698 158.583 11.9681ZM97.5354 41.5361C88.9212 48.599 81.6179 55.6564 74.7954 61.7634C54.0874 79.5981 38.2902 89.1737 24.1644 89.1737C16.7465 89.1737 7.88645 86.8959 7.88645 76.0038C7.88645 65.4723 17.3419 54.7005 33.2648 44.7644C44.8724 37.4666 60.7898 32.9164 70.7259 32.9164C81.8583 32.9164 91.7944 36.03 97.5354 41.5361Z" fill="black"/>
<path d="M158.101 46.5618H156.784C155.468 46.5618 154.271 46.8021 153.315 47.3975C151.518 48.3589 146.968 52.5486 145.056 54.4604C144.696 54.7008 144.455 54.5806 144.696 54.2201C147.209 51.467 148.164 49.3149 148.164 47.9984C148.164 45.6059 146.253 45.2454 144.215 45.2454C137.753 45.2454 124.944 52.0679 116.45 60.8077C111.179 66.1937 106.994 73.3713 106.994 77.8013C106.874 80.1938 108.07 81.7506 111.064 81.7506C114.893 81.7506 122.431 76.7252 131.171 68.466C131.646 67.9853 132.007 68.3459 131.531 68.8265C122.792 78.4021 112.735 88.8135 103.761 95.9965C92.8686 104.611 78.6226 112.99 64.262 112.99C53.6103 112.99 44.0347 108.566 42.4779 99.5853C42.2376 98.5092 42.1174 97.4331 41.522 97.6735C40.9211 97.7882 40.5606 98.8698 40.9211 100.782C42.2376 109.642 52.414 115.028 64.8628 115.028C78.6226 115.028 93.3493 109.521 108.546 97.7882C121.235 88.0979 135.601 71.8199 139.55 67.2698C143.855 62.3591 154.151 50.6313 158.101 46.5618ZM146.493 48.2388C146.493 51.2322 138.709 58.6501 134.519 62.9599C125.184 72.4153 115.253 79.9589 112.02 80.0736C111.064 80.0736 110.823 79.4782 110.823 78.8774C110.823 76.1243 116.089 69.4219 121.956 63.6755C132.963 53.0238 141.823 47.0425 145.177 47.0425C146.012 47.0425 146.493 47.5177 146.493 48.2388Z" fill="black"/>
<path d="M161.334 60.4472C161.809 60.6876 162.65 60.9279 163.606 60.9279C167.195 60.9279 172.581 58.8904 176.415 56.2576C179.764 53.9852 182.757 50.7515 182.757 48.2388C182.757 46.5618 181.561 45.2454 179.168 45.2454C173.422 45.2454 161.689 52.0679 153.67 59.606C146.012 67.0294 144.335 73.0162 144.335 76.1243C144.335 80.7947 147.568 81.7506 150.442 81.7506C155.106 81.7506 160.372 78.8774 164.327 76.1243C169.593 72.5355 174.137 68.7064 178.207 64.9974C178.688 64.5167 179.288 63.7957 178.808 63.3204C178.327 62.8398 177.491 63.5608 176.65 64.2764C173.542 67.0294 167.555 72.2952 161.809 75.8894C157.739 78.4021 153.91 79.9589 151.518 79.9589C149.6 79.9589 148.765 79.1177 148.765 77.5609C148.765 73.7318 155.347 65.9533 161.334 60.4472ZM162.169 59.606C167.675 54.2201 177.371 46.682 179.884 46.682C180.485 46.682 180.72 46.9223 180.72 47.3975C180.72 48.8342 178.447 51.5872 175.099 54.2201C170.549 57.9345 165.523 59.8464 163.125 59.8464C162.77 59.8464 162.41 59.7262 162.169 59.606Z" fill="black"/>
</svg>
